<?xml version="1.0" encoding="utf-8"?>
<!-- Generator: Adobe Illustrator 20.1.0, SVG Export Plug-In . SVG Version: 6.00 Build 0)  -->
<svg version="1.1" id="Слой_1" xmlns="http://www.w3.org/2000/svg" xmlns:xlink="http://www.w3.org/1999/xlink" x="0px" y="0px"
	 width="65px" height="65px" viewBox="0 0 65 65" style="enable-background:new 0 0 65 65;" xml:space="preserve">
<g>
	<g>
		<path style="fill:#16BF86;" d="M60.88,38.623h-1.928v1.941h1.928C60.88,40.564,60.88,38.623,60.88,38.623z M56.77,32.529h-1.894
			c-0.139,6.166-2.273,11.453-6.607,15.779c-4.33,4.323-9.624,6.439-15.725,6.572v1.928C46.43,57.009,57.258,44.827,56.77,32.529z
			 M32.648,62.958c-1.851-0.007-3.728-0.152-5.543-0.497c-9.575-1.825-16.727-7.074-21.452-15.573
			c-2.492-4.48-3.633-9.344-3.635-14.472c0-1.304,0-2.609,0-3.979H0v5.839c0.141,1.127,0.242,2.261,0.428,3.38
			c1.038,6.262,3.642,11.796,7.901,16.505c5.249,5.803,11.758,9.317,19.514,10.472c0.957,0.143,1.919,0.246,2.88,0.367H65v-2.031
			c-0.126,0.004-0.253,0.011-0.381,0.011C53.963,62.98,43.306,63.003,32.648,62.958z M44.861,6.926
			c-10.776-5.352-23.999-3.05-32.496,5.538c-8.573,8.665-10.73,21.798-5.391,32.533c5.622,11.301,16.842,16.118,25.484,15.862
			v-1.777c-1.966-0.276-3.873-0.413-5.72-0.823C12.679,55.149,3.665,41.167,6.623,27.127C9.663,12.691,23.976,3.38,38.274,6.756
			c9.914,2.342,16.403,8.596,19.558,18.276c1.029,3.156,1.166,6.431,1.087,9.723c-0.014,0.583-0.002,1.168-0.002,1.76h1.952
			C61.931,23.442,56.097,12.505,44.861,6.926z M60.901,42.709h-1.948v1.916h1.948V42.709z M1.983,24.375H0v2.031h1.983V24.375z
			 M1.983,20.313H0v2.031h1.983V20.313z M44.646,60.891v-1.927h-1.937v1.927H44.646z M25.33,28.493h-1.921v1.941h1.921V28.493z
			 M63.018,36.563H65v-2.031h-1.983V36.563z M27.405,12.251v8.094H21.38v2.017h6.003v18.296h-3.96v2.017h4.034v1.959h1.997V42.68
			h2.053v6.023h2.02v-6.059c1.11,0,2.145,0.042,3.178-0.007c2.948-0.141,5.128-1.54,6.327-4.232c1.19-2.674,0.769-5.218-1.105-7.462
			c-0.554-0.664-1.295-1.174-1.961-1.762c0.005-0.007,0.036-0.063,0.079-0.108c1.603-1.659,2.069-3.591,1.139-5.706
			c-0.928-2.114-2.674-3.071-4.971-3.042c-0.881,0.011-1.764,0.002-2.719,0.002V18.33h-2.019v1.966h-2.051v-8.046H27.405z
			 M41.636,36.053c-0.237,2.54-2.428,4.552-5.005,4.581c-1.013,0.011-2.026,0.002-3.084,0.002V30.577
			c1.392,0,2.77-0.177,4.081,0.038C40.183,31.034,41.878,33.464,41.636,36.053z M33.526,22.445c1.296,0,2.596-0.159,3.837,0.042
			c1.5,0.24,2.423,1.775,2.243,3.286c-0.179,1.482-1.472,2.649-2.988,2.674c-1.009,0.016-2.02,0.004-3.091,0.004V22.445z
			 M31.462,40.605h-1.968V30.49h1.968V40.605z M29.481,22.373h1.975v6.05h-1.975V22.373z M19.347,28.493v1.93h1.941v-1.93H19.347z
			 M64.758,28.786c-0.85-7.204-3.775-13.451-8.779-18.688c-5.164-5.404-11.474-8.656-18.884-9.741
			C36.158,0.22,35.217,0.119,34.277,0H0v2.031C0.085,2.028,0.17,2.02,0.253,2.02c10.783,0,21.567-0.005,32.35,0.002
			c3.322,0.002,6.583,0.478,9.699,1.638C53.603,7.87,60.389,15.92,62.591,27.784c0.283,1.526,0.327,3.095,0.482,4.666
			c-0.009-0.007,0.007,0.016,0.023,0.016c0.636,0.013,1.269,0.023,1.903,0.034v-1.777C64.919,30.077,64.834,29.432,64.758,28.786z
			 M36.505,60.896v-1.937h-1.927v1.937C34.578,60.896,36.505,60.896,36.505,60.896z M40.569,60.876v-1.921h-1.941v1.921H40.569z
			 M19.247,20.347h-1.921v1.941h1.921V20.347z M12.229,32.558c-0.083,10.777,8.941,20.659,21.158,20.229
			c11.673-0.41,20.724-11.046,19.262-22.712c-1.49-11.872-12.003-18.193-20.118-17.788v1.871
			c9.884,0.025,18.041,8.008,18.247,17.844c0.197,9.416-6.343,17.162-15.694,18.599c-4.409,0.677-8.569-0.217-12.318-2.64
			c-5.577-3.606-8.345-8.844-8.607-15.403C14.159,32.558,12.229,32.558,12.229,32.558z"/>
	</g>
</g>
</svg>
